0
SECTION
2
HEADER
9
$INSUNITS
70
1
9
$ACADVER
1
AC1014
9
$HANDSEED
5
FFFF
0
ENDSEC
0
SECTION
2
TABLES
0
TABLE
2
VPORT
5
8
100
AcDbSymbolTable
0
ENDTAB
0
TABLE
2
LTYPE
5
5
100
AcDbSymbolTable
0
LTYPE
5
14
100
AcDbSymbolTableRecord
100
AcDbLinetypeTableRecord
2
BYBLOCK
70
0
0
LTYPE
5
15
100
AcDbSymbolTableRecord
100
AcDbLinetypeTableRecord
2
BYLAYER
70
0
0
LTYPE
5
16
100
AcDbSymbolTableRecord
100
AcDbLinetypeTableRecord
2
DASHED
70
0
3
Dashed __ __ __ __ __ __ __ __ __ __ __ __ __ _
72
65
73
2
40
0.75
49
0.5
74
0
49
-0.25
74
0
0
ENDTAB
0
TABLE
2
LAYER
5
2
100
AcDbSymbolTable
70
2
0
LAYER
5
50
100
AcDbSymbolTableRecord
100
AcDbLayerTableRecord
2
0
70
0
62
7
6
CONTINUOUS
0
ENDTAB
0
TABLE
2
STYLE
5
3
100
AcDbSymbolTable
70
1
0
STYLE
5
11
100
AcDbSymbolTableRecord
100
AcDbTextStyleTableRecord
2
STANDARD
70
0
0
ENDTAB
0
TABLE
2
VIEW
5
6
100
AcDbSymbolTable
70
0
0
ENDTAB
0
TABLE
2
UCS
5
7
100
AcDbSymbolTable
70
0
0
ENDTAB
0
TABLE
2
APPID
5
9
100
AcDbSymbolTable
70
2
0
APPID
5
12
100
AcDbSymbolTableRecord
100
AcDbRegAppTableRecord
2
ACAD
70
0
0
ENDTAB
0
TABLE
2
DIMSTYLE
5
A
100
AcDbSymbolTable
70
1
0
ENDTAB
0
TABLE
2
BLOCK_RECORD
5
1
100
AcDbSymbolTable
70
1
0
BLOCK_RECORD
5
1F
100
AcDbSymbolTableRecord
100
AcDbBlockTableRecord
2
*MODEL_SPACE
0
BLOCK_RECORD
5
1B
100
AcDbSymbolTableRecord
100
AcDbBlockTableRecord
2
*PAPER_SPACE
0
ENDTAB
0
ENDSEC
0
SECTION
2
BLOCKS
0
BLOCK
5
20
100
AcDbEntity
100
AcDbBlockBegin
2
*MODEL_SPACE
0
ENDBLK
5
21
100
AcDbEntity
100
AcDbBlockEnd
0
BLOCK
5
1C
100
AcDbEntity
100
AcDbBlockBegin
2
*PAPER_SPACE
0
ENDBLK
5
1D
100
AcDbEntity
100
AcDbBlockEnd
0
ENDSEC
0
SECTION
2
ENTITIES
0
LWPOLYLINE
5
100
100
AcDbEntity
8
0
100
AcDbPolyline
90
548
70
1
43
0.0
10
10.372006005208334
20
-1.6075924875000003
10
10.376238622916667
20
-1.6077300093750002
10
10.380471240625003
20
-1.6079592125000004
10
10.384703858333335
20
-1.6082648166666675
10
10.388921195833335
20
-1.6086773822916665
10
10.393123253125001
20
-1.6091816291666672
10
10.397310030208335
20
-1.6097775572916668
10
10.401496807291666
20
-1.6104498864583339
10
10.405668304166667
20
-1.6112291770833329
10
10.409809240625002
20
-1.6120848687500002
10
10.413934896875002
20
-1.6130322416666671
10
10.418045272916665
20
-1.6140712958333336
10
10.422125088541668
20
-1.6151867510416662
10
10.426189623958331
20
-1.6164091677083336
10
10.430223598958333
20
-1.6177079854166663
10
10.434227013541667
20
-1.619098484375
10
10.438199867708333
20
-1.6205653843749999
10
10.442126881250001
20
-1.6221239656250008
10
10.446038614583335
20
-1.6237742281250001
10
10.449904507291668
20
-1.6254856114583329
10
10.453739839583333
20
-1.62730395625
10
10.457529331249999
20
-1.6291987020833332
10
10.461272982291666
20
-1.6311698489583337
10
10.464986072916668
20
-1.6332173968750001
10
10.468638042708335
20
-1.6353413458333335
10
10.472259452083334
20
-1.6375569760416666
10
10.475819740625003
20
-1.6398490072916669
10
10.479334188541669
20
-1.6422021593749998
10
10.482802795833335
20
-1.6446469927083338
10
10.486210282291667
20
-1.6471529468750004
10
10.489571928125001
20
-1.6497353020833334
10
10.492872453125001
20
-1.6523940583333332
10
10.496111857291666
20
-1.6551139354166664
10
10.499290140625
20
-1.6579102135416668
10
10.502407303125
20
-1.6607828927083332
10
10.505478625000002
20
-1.6637166927083336
10
10.508473545833336
20
-1.6667116135416664
10
10.511392065625
20
-1.6697676552083329
10
10.514264744791666
20
-1.6728848177083333
10
10.517061022916666
20
-1.6760631010416669
10
10.519780900000001
20
-1.6793177854166665
10
10.52243965625
20
-1.6826030302083332
10
10.525022011458335
20
-1.6859646760416669
10
10.527543245833334
20
-1.6893721625
10
10.529972798958335
20
-1.692840769791667
10
10.532341231249999
20
-1.6963552177083334
10
10.534617982291667
20
-1.69991550625
10
10.536833612499999
20
-1.7035369156250004
10
10.538957561458334
20
-1.7072041656250003
10
10.541020389583332
20
-1.7109019760416666
10
10.542991536458334
20
-1.7146456270833341
10
10.544886282291667
20
-1.7184351187500002
10
10.546689346875
20
-1.7222704510416664
10
10.548416010416666
20
-1.7261363437500008
10
10.550050992708332
20
-1.730048077083334
10
10.551609573958336
20
-1.7339903708333335
10
10.553091754166669
20
-1.7379632250000006
10
10.554466972916668
20
-1.7419666395833333
10
10.555765790625003
20
-1.7459853343749996
10
10.556988207291669
20
-1.7500498697916669
10
10.558103662500001
20
-1.7541296854166666
10
10.559142716666665
20
-1.7582400614583333
10
10.560090089583335
20
-1.7623657177083329
10
10.560961061458334
20
-1.7665219343750007
10
10.561725071874999
20
-1.7706781510416669
10
10.562412681250002
20
-1.7748649281250004
10
10.562993329166671
20
-1.7790517052083341
10
10.563497576041668
20
-1.7832690427083333
10
10.563910141666666
20
-1.7874710999999999
10
10.564231026041668
20
-1.7917037177083337
10
10.564460229166668
20
-1.7959363354166666
10
10.564597751041664
20
-1.8001689531250005
10
10.56464359166667
20
-1.8044015708333334
10
10.56464359166667
20
-6.482070627083333
10
10.564597751041665
20
-6.4863032447916655
10
10.564460229166668
20
-6.4905358625000007
10
10.564231026041664
20
-6.4947684802083332
10
10.563910141666666
20
-6.4989858177083333
10
10.563497576041668
20
-6.5032031552083316
10
10.562993329166668
20
-6.507405212500001
10
10.562412681249999
20
-6.5116072697916678
10
10.561725071874999
20
-6.5157940468749995
10
10.560961061458334
20
-6.5199502635416655
10
10.560105369791668
20
-6.5241064802083351
10
10.559142716666669
20
-6.5282321364583327
10
10.558118942708333
20
-6.5323425124999988
10
10.556988207291669
20
-6.5364223281249991
10
10.555765790624999
20
-6.5404715833333329
10
10.554466972916666
20
-6.5445055583333334
10
10.553091754166669
20
-6.5485089729166672
10
10.551609573958334
20
-6.5524818270833327
10
10.550050992708332
20
-6.5564241208333325
10
10.548416010416666
20
-6.5603205739583323
10
10.546689346875
20
-6.5642017468749998
10
10.544886282291667
20
-6.5680217989583332
10
10.542991536458334
20
-6.5718112906250008
10
10.541020389583332
20
-6.5755702218750001
10
10.538972841666668
20
-6.579268032291667
10
10.536833612499999
20
-6.5829352822916656
10
10.534617982291667
20
-6.5865414114583354
10
10.532341231249999
20
-6.5901169802083333
10
10.529972798958333
20
-6.5936314281249997
10
10.527543245833334
20
-6.5970847552083338
10
10.525022011458335
20
-6.6005075218750004
10
10.52243965625
20
-6.6038538875000006
10
10.519780900000001
20
-6.6071544124999999
10
10.517061022916666
20
-6.6103938166666678
10
10.514264744791666
20
-6.6135873802083331
10
10.511392065625
20
-6.616704542708332
10
10.508473545833333
20
-6.6197605843749994
10
10.505478625
20
-6.6227555052083353
10
10.502407303125
20
-6.6256893052083328
10
10.499290140625
20
-6.6285467041666681
10
10.496111857291666
20
-6.6313429822916659
10
10.492872453125001
20
-6.6340781395833348
10
10.489571928125001
20
-6.6367216156250004
10
10.486210282291667
20
-6.6393192510416652
10
10.482802795833335
20
-6.6418252052083329
10
10.479334188541669
20
-6.6442700385416664
10
10.475819740624999
20
-6.6466231906249993
10
10.472259452083334
20
-6.6489152218750007
10
10.468638042708335
20
-6.6511155718749988
10
10.464986072916668
20
-6.6532548010416672
10
10.461272982291666
20
-6.6553023489583332
10
10.457529331249999
20
-6.6572734958333335
10
10.453739839583333
20
-6.6591682416666673
10
10.449904507291668
20
-6.6609713062500004
10
10.446038614583335
20
-6.662697969791668
10
10.442126881250001
20
-6.6643482322916663
10
10.438199867708333
20
-6.6659068135416675
10
10.434227013541667
20
-6.6673737135416653
10
10.430223598958333
20
-6.6687642124999993
10
10.426189623958331
20
-6.6700630302083335
10
10.422125088541668
20
-6.6712701666666643
10
10.418045272916665
20
-6.6724009020833348
10
10.413934896875002
20
-6.6734399562499993
10
10.409809240625002
20
-6.6743873291666667
10
10.405668304166669
20
-6.6752430208333324
10
10.401496807291668
20
-6.6760223114583335
10
10.397325310416665
20
-6.6766946406249987
10
10.393123253124999
20
-6.6772905687499984
10
10.388921195833332
20
-6.6777795354166667
10
10.384703858333335
20
-6.6781921010416649
10
10.380471240625003
20
-6.6785129854166669
10
10.376253903125001
20
-6.6787421885416673
10
10.372021285416666
20
-6.6788797104166679
10
10.367773387500002
20
-6.6789255510416652
10
9.7772086156250015
20
-6.6789255510416652
10
9.7741678541666683
20
-6.678971391666666
10
9.7711423729166675
20
-6.6791089135416666
10
9.7681168916666667
20
-6.679338116666667
10
9.7651066906249984
20
-6.6796742812500005
10
9.7621117697916677
20
-6.6800868468749988
10
9.7591168489583318
20
-6.6806063739583328
10
9.7561524885416695
20
-6.6812023020833324
10
9.7532034083333308
20
-6.681905191666667
10
9.7502696083333351
20
-6.6826844822916671
10
9.7473663687500025
20
-6.6835554541666653
10
9.7444936895833347
20
-6.6845181072916668
10
9.7416515708333336
20
-6.6855724416666682
10
9.7388400125000008
20
-6.6867031770833334
10
9.7360590145833346
20
-6.6879408739583326
10
9.7333238572916656
20
-6.6892396916666668
10
9.7306345406249992
20
-6.6906301906250008
10
9.7279910645833318
20
-6.6921123708333328
10
9.725393429166667
20
-6.693670952083334
10
9.7228416343750013
20
-6.6953059343749981
10
9.7203356802083327
20
-6.6970173177083341
10
9.7178908468750009
20
-6.698805102083333
10
9.7154918541666682
20
-6.7006692874999985
10
9.713169262500001
20
-6.7026098739583322
10
9.7108925114583347
20
-6.7046115812500009
10
9.7086921614583339
20
-6.7066896895833326
10
9.7065376520833322
20
-6.7088289187499983
10
9.7044595437499996
20
-6.7110445489583341
10
9.7024578364583345
20
-6.7133213000000005
10
9.700517249999999
20
-6.7156438916666676
10
9.6986530645833327
20
-6.7180428843750004
10
9.6968652802083319
20
-6.720487717708334
10
9.6951538968750004
20
-6.7229783916666674
10
9.6935189145833327
20
-6.7255454666666665
10
9.6919603333333342
20
-6.7281431020833322
10
9.6904934333333355
20
-6.7307865781250005
10
9.6890876541666682
20
-6.733475894791666
10
9.6877888364583331
20
-6.7362110520833323
10
9.6865664197916672
20
-6.7389920499999985
10
9.6854204041666669
20
-6.741803608333333
10
9.6843660697916665
20
-6.7446457270833342
10
9.6834034166666676
20
-6.7475184062500002
10
9.6825324447916667
20
-6.7504216458333328
10
9.6817531541666675
20
-6.7533401656249996
10
9.6810502645833356
20
-6.756304526041669
10
9.6804543364583342
20
-6.759268886458333
10
9.6799348093750002
20
-6.7622638072916663
10
9.6795222437500001
20
-6.7652587281250014
10
9.6792013593749999
20
-6.7682689291666662
10
9.6789568760416671
20
-6.771294410416667
10
9.6788193541666683
20
-6.774319891666666
10
9.6787735135416657
20
-6.7773606531249992
10
9.6787735135416675
20
-7.269031916666667
10
9.6787276729166685
20
-7.2732645343749995
10
9.6785901510416696
20
-7.2774971520833338
10
9.6783609479166675
20
-7.2817297697916663
10
9.6780400635416672
20
-7.2859471072916646
10
9.6776427781249996
20
-7.2901644447916683
10
9.6771385312499998
20
-7.294366502083335
10
9.6765426031250019
20
-7.2985532791666667
10
9.6758702739583349
20
-7.3027400562499993
10
9.675106263541668
20
-7.306896272916668
10
9.6742352916666672
20
-7.311052489583334
10
9.6732879187500007
20
-7.3151781458333343
10
9.6722488645833344
20
-7.3192732416666662
10
9.6711334093750025
20
-7.3233530572916665
10
9.6699109927083331
20
-7.3274175927083327
10
9.6686121750000016
20
-7.3314515677083323
10
9.6672369562500009
20
-7.335454982291667
10
9.665754776041668
20
-7.339412556250001
10
9.6642114750000001
20
-7.3433548500000008
10
9.6625612125000018
20
-7.3472665833333313
10
9.6608345489583343
20
-7.3511324760416681
10
9.6590314843749994
20
-7.3549525281250014
10
9.6571367385416664
20
-7.3587420197916691
10
9.6551808718750003
20
-7.3624856708333333
10
9.6531180437500002
20
-7.3661987614583317
10
9.6509940947916668
20
-7.3698507312499988
10
9.6487937447916661
20
-7.3734721406250001
10
9.6465017135416691
20
-7.3770324291666665
10
9.6441332812500011
20
-7.3805468770833329
10
9.641703728125
20
-7.3840154843749994
10
9.639197773958335
20
-7.3874229708333337
10
9.6366154187500008
20
-7.390784616666668
10
9.633956662500001
20
-7.3940851416666646
10
9.6312367854166663
20
-7.3973245458333334
10
9.6284405072916659
20
-7.4005028291666664
10
9.6255831083333341
20
-7.4036199916666652
10
9.6226493083333331
20
-7.4066760333333326
10
9.6196543874999989
20
-7.4096709541666685
10
9.6165983458333351
20
-7.4126047541666669
10
9.6134811833333327
20
-7.4154621531249987
10
9.6103029000000006
20
-7.4182584312499991
10
9.6070634958333336
20
-7.4209935885416654
10
9.6037629708333334
20
-7.4236523447916678
10
9.600416605208336
20
-7.426234700000002
10
9.59700911875
20
-7.428740654166667
10
9.5935405114583343
20
-7.4311854875000005
10
9.5900260635416661
20
-7.4335386395833334
10
9.5864657750000006
20
-7.4358306708333339
10
9.5828443656250002
20
-7.4380463010416662
10
9.5791923958333367
20
-7.4401702500000013
10
9.5754945854166653
20
-7.4422330781250015
10
9.5717509343750002
20
-7.4442042250000009
10
9.5679614427083344
20
-7.4460836906250005
10
9.5641261104166677
20
-7.4479020354166687
10
9.5602602177083345
20
-7.4496286989583327
10
9.5563637645833346
20
-7.4512636812499995
10
9.5524214708333339
20
-7.4528222625000007
10
9.5484486166666649
20
-7.4543044427083327
10
9.5444452020833346
20
-7.4556949416666676
10
9.5404265072916683
20
-7.4569937593750018
10
9.5363619718750012
20
-7.4582008958333326
10
9.5322821562499982
20
-7.4593316312500031
10
9.5281870604166681
20
-7.4603706854166676
10
9.524061404166666
20
-7.4613180583333341
10
9.5199051875000027
20
-7.4621890302083322
10
9.515748970833334
20
-7.4629530406250009
10
9.5115621937500006
20
-7.4636406500000012
10
9.5073754166666671
20
-7.4642365781249982
10
9.5031733593749994
20
-7.4647408249999998
10
9.4989560218749993
20
-7.4651533906249989
10
9.494738684375001
20
-7.465474275
10
9.490506066666665
20
-7.4657034781250013
10
9.4862734489583325
20
-7.4658409999999993
10
9.48204083125
20
-7.4658868406250019
10
1.8436938885416667
20
-7.4658868406250019
10
1.8394612708333338
20
-7.4658409999999993
10
1.8352286531250006
20
-7.4657034781250013
10
1.8309960354166677
20
-7.465474275
10
1.8267786979166676
20
-7.4651533906249989
10
1.8225613604166675
20
-7.4647408249999998
10
1.8183593031250016
20
-7.4642365781249982
10
1.8141725260416681
20
-7.4636406500000012
10
1.8099857489583346
20
-7.4629530406249982
10
1.8058295322916669
20
-7.4621890302083322
10
1.8016885958333342
20
-7.4613180583333341
10
1.7975629395833339
20
-7.4603706854166676
10
1.7934525635416672
20
-7.4593316312500031
10
1.7893727479166677
20
-7.4582008958333326
10
1.785308212500001
20
-7.4569937593750018
10
1.7812895177083339
20
-7.4556949416666676
10
1.7772861031250005
20
-7.4543044427083327
10
1.7733132489583341
20
-7.4528222625000007
10
1.7693709552083339
20
-7.4512636812499995
10
1.7654745020833345
20
-7.4496286989583327
10
1.7616086093750014
20
-7.4479020354166687
10
1.7577885572916681
20
-7.4460836906250005
10
1.7539990656250006
20
-7.4442042250000009
10
1.7502401343750009
20
-7.4422330781250015
10
1.7465423239583338
20
-7.4401702500000013
10
1.7428903541666676
20
-7.4380463010416662
10
1.7392689447916672
20
-7.4358306708333339
10
1.7357086562500006
20
-7.4335386395833334
10
1.7321942083333342
20
-7.4311854875000005
10
1.7287408812500009
20
-7.428740654166667
10
1.7253333947916678
20
-7.4262346999999993
10
1.7219717489583342
20
-7.4236523447916651
10
1.718671223958335
20
-7.4209935885416654
10
1.7154318197916669
20
-7.4182584312499991
10
1.7122535364583342
20
-7.4154621531249987
10
1.7091363739583345
20
-7.4126047541666669
10
1.706080332291668
20
-7.4096709541666685
10
1.7030854114583338
20
-7.4066760333333326
10
1.7001668916666677
20
-7.4036199916666652
10
1.6972942125000012
20
-7.4005028291666664
10
1.6944979343750006
20
-7.3973245458333334
10
1.6917780572916676
20
-7.3940851416666646
10
1.6891193010416672
20
-7.390784616666668
10
1.6865369458333339
20
-7.3874229708333337
10
1.6840309916666683
20
-7.3840154843749994
10
1.6816014385416673
20
-7.3805468770833329
10
1.6792330062500007
20
-7.3770324291666665
10
1.6769562552083346
20
-7.3734721406250001
10
1.6747406250000016
20
-7.3698507312500015
10
1.6726166760416676
20
-7.3661987614583344
10
1.670569128125001
20
-7.3624856708333333
10
1.6685979812500005
20
-7.3587420197916655
10
1.6667032354166673
20
-7.3549525281249988
10
1.664900170833334
20
-7.3511324760416681
10
1.6631735072916674
20
-7.3472665833333339
10
1.6615385250000012
20
-7.3433548500000008
10
1.6599799437500009
20
-7.339412556250001
10
1.6584977635416667
20
-7.335454982291667
10
1.657122544791668
20
-7.3314515677083323
10
1.6558237270833354
20
-7.3274175927083327
10
1.6546013104166672
20
-7.3233530572916665
10
1.653485855208334
20
-7.3192732416666662
10
1.6524468010416673
20
-7.3151781458333343
10
1.6514994281250013
20
-7.311052489583334
10
1.6506437364583346
20
-7.306896272916668
10
1.6498644458333342
20
-7.3027400562499993
10
1.6491921166666679
20
-7.2985532791666667
10
1.6485961885416673
20
-7.294366502083335
10
1.6480919416666675
20
-7.2901644447916683
10
1.6476946562500008
20
-7.2859471072916673
10
1.6473737718750014
20
-7.2817297697916663
10
1.6471445687500013
20
-7.2774971520833338
10
1.6470070468750013
20
-7.2732645343749995
10
1.6469612062500005
20
-7.269031916666667
10
1.6469612062500012
20
-6.7773606531249992
10
1.6469153656250011
20
-6.774319891666666
10
1.6467778437500005
20
-6.771294410416667
10
1.6465486406250009
20
-6.7682689291666662
10
1.6462124760416679
20
-6.7652587281250014
10
1.6457999104166683
20
-6.7622638072916663
10
1.6452803833333347
20
-6.759268886458333
10
1.6446844552083337
20
-6.7563045260416663
10
1.6439815656250005
20
-6.7533401656249996
10
1.6432022750000015
20
-6.7504216458333355
10
1.642331303125
20
-6.7475184062500002
10
1.6413686500000009
20
-6.7446457270833342
10
1.6403143156250006
20
-6.741803608333333
10
1.6391835802083352
20
-6.7389920500000011
10
1.6379458833333342
20
-6.7362110520833349
10
1.6366470656250007
20
-6.733475894791666
10
1.6352565666666679
20
-6.7307865781250005
10
1.6337743864583336
20
-6.7281431020833322
10
1.6322158052083342
20
-6.7255454666666665
10
1.6305808229166678
20
-6.7229783916666674
10
1.6288694395833341
20
-6.720487717708334
10
1.6270816552083345
20
-6.7180428843750004
10
1.6252174697916673
20
-6.7156438916666676
10
1.623276883333334
20
-6.7133213000000005
10
1.6212751760416675
20
-6.7110445489583341
10
1.6191970677083336
20
-6.7088289187499983
10
1.6170578385416674
20
-6.7066896895833326
10
1.6148422083333345
20
-6.7046115812500009
10
1.6125654572916683
20
-6.7026098739583322
10
1.6102428656250012
20
-6.7006692874999985
10
1.6078438729166675
20
-6.698805102083333
10
1.6053990395833342
20
-6.6970173177083341
10
1.6029083656250007
20
-6.6953059343749981
10
1.6003412906250005
20
-6.693670952083334
10
1.5977436552083344
20
-6.6921123708333328
10
1.5951001791666668
20
-6.6906301906250008
10
1.5924108625000004
20
-6.6892396916666668
10
1.5896757052083343
20
-6.6879408739583326
10
1.5868947072916675
20
-6.6867031770833334
10
1.5840831489583334
20
-6.6855724416666682
10
1.5812410302083342
20
-6.6845181072916668
10
1.5783683510416677
20
-6.6835554541666653
10
1.5754651114583347
20
-6.6826844822916671
10
1.5725465916666679
20
-6.681905191666667
10
1.569582231250001
20
-6.6812023020833324
10
1.5666178708333347
20
-6.6806063739583328
10
1.5636229500000005
20
-6.6800868468749988
10
1.5606280291666679
20
-6.6796742812500005
10
1.5576178281250008
20
-6.679338116666667
10
1.5545923468750014
20
-6.6791089135416666
10
1.5515668656250008
20
-6.678971391666666
10
1.5485261041666678
20
-6.6789255510416652
10
0.95796133229166747
20
-6.6789255510416652
10
0.95372871458333441
20
-6.6788797104166679
10
0.94948081666666773
20
-6.6787421885416673
10
0.94526347916666698
20
-6.6785129854166669
10
0.94103086145833459
20
-6.6781921010416649
10
0.93681352395833384
20
-6.6777795354166694
10
0.93261146666666805
20
-6.6772905687499984
10
0.92842468958333446
20
-6.6766946406249987
10
0.92423791250000098
20
-6.6760223114583335
10
0.92006641562500102
20
-6.6752430208333324
10
0.915925479166667
20
-6.6743873291666667
10
0.91179982291666795
20
-6.6734399562499993
10
0.90768944687500119
20
-6.6724009020833348
10
0.90360963125000027
20
-6.6712701666666643
10
0.89954509583333364
20
-6.6700630302083335
10
0.89551112083333362
20
-6.6687642124999993
10
0.89150770625000086
20
-6.6673737135416653
10
0.88753485208333394
20
-6.6659068135416675
10
0.88360783854166725
20
-6.6643482322916663
10
0.87969610520833419
20
-6.662697969791668
10
0.87583021250000126
20
-6.6609713062500004
10
0.87199488020833427
20
-6.6591682416666673
10
0.86820538854166807
20
-6.6572734958333335
10
0.86446173750000077
20
-6.6553023489583332
10
0.8607486468750013
20
-6.6532548010416672
10
0.85709667708333437
20
-6.6511155718749988
10
0.85347526770833393
20
-6.6489152218750007
10
0.84991497916666736
20
-6.646623190625002
10
0.84640053125000092
20
-6.6442700385416664
10
0.84293192395833472
20
-6.6418252052083329
10
0.83952443750000094
20
-6.6393192510416652
10
0.8361627916666674
20
-6.6367216156250004
10
0.83286226666666763
20
-6.6340781395833348
10
0.82962286250000095
20
-6.6313429822916659
10
0.82644457916666747
20
-6.6285467041666681
10
0.82332741666666776
20
-6.6256893052083328
10
0.8202560947916675
20
-6.6227555052083353
10
0.81726117395833475
20
-6.6197605843749994
10
0.81434265416666807
20
-6.616704542708332
10
0.81146997500000084
20
-6.6135873802083331
10
0.80867369687500101
20
-6.6103938166666678
10
0.80595381979166802
20
-6.6071544124999999
10
0.80329506354166746
20
-6.603853887499997
10
0.8007127083333343
20
-6.6005075218750004
10
0.7982067541666672
20
-6.5970847552083338
10
0.79576192083333397
20
-6.5936314281249997
10
0.79339348854166736
20
-6.5901169802083333
10
0.79111673750000122
20
-6.5865414114583318
10
0.78890110729166751
20
-6.5829352822916656
10
0.78677715833333417
20
-6.579268032291667
10
0.7847143302083347
20
-6.5755702218750001
10
0.78274318333333348
20
-6.5718112906250008
10
0.78086371770833407
20
-6.5680217989583332
10
0.77904537291666776
20
-6.5642017468749998
10
0.77731870937500114
20
-6.5603205739583323
10
0.77568372708333411
20
-6.5564241208333325
10
0.77412514583333392
20
-6.5524818270833327
10
0.77265824583333476
20
-6.5485089729166672
10
0.77126774687500099
20
-6.5445055583333334
10
0.7699689291666677
20
-6.5404715833333329
10
0.76874651250000103
20
-6.5364223281250018
10
0.76763105729166703
20
-6.5323425125000014
10
0.76659200312500109
20
-6.5282321364583327
10
0.76564463020833429
20
-6.5241064802083351
10
0.76477365833333411
20
-6.5199502635416655
10
0.76400964791666726
20
-6.5157940468749995
10
0.76332203854166791
20
-6.5116072697916678
10
0.76274139062500113
20
-6.507405212500001
10
0.76223714375000051
20
-6.5032031552083316
10
0.76182457812500082
20
-6.4989858177083333
10
0.76150369375000093
20
-6.4947684802083332
10
0.76127449062500063
20
-6.4905358625000007
10
0.76115224895833444
20
-6.4863032447916682
10
0.76110640833333421
20
-6.482070627083333
10
0.76110640833333421
20
-1.8045543729166662
10
0.76115224895833444
20
-1.8003064750000002
10
0.76127449062500063
20
-1.7960738572916672
10
0.76150369375000093
20
-1.7918565197916665
10
0.76182457812500082
20
-1.7876239020833333
10
0.76223714375000118
20
-1.7834065645833332
10
0.76274139062500113
20
-1.7792045072916669
10
0.76332203854166725
20
-1.7750177302083332
10
0.76400964791666726
20
-1.7708309531249997
10
0.76477365833333477
20
-1.7666594562499998
10
0.76564463020833429
20
-1.7625185197916673
10
0.76659200312500042
20
-1.7583928635416668
10
0.7676310572916677
20
-1.7542824875
10
0.76874651250000103
20
-1.7502026718750006
10
0.7699689291666677
20
-1.7461381364583339
10
0.77126774687500033
20
-1.7421041614583339
10
0.77265824583333409
20
-1.7381007468750003
10
0.77412514583333392
20
-1.7341278927083335
10
0.77568372708333488
20
-1.7302008791666674
10
0.77731870937500114
20
-1.7262891458333329
10
0.77904537291666776
20
-1.7224232531249994
10
0.78086371770833407
20
-1.7185879208333337
10
0.78274318333333415
20
-1.7147984291666662
10
0.78471433020833403
20
-1.7110547781249994
10
0.78677715833333417
20
-1.7073416875
10
0.78890110729166829
20
-1.7036897177083332
10
0.79111673750000056
20
-1.7000683083333334
10
0.79339348854166736
20
-1.6965080197916669
10
0.79576192083333464
20
-1.6929935718750004
10
0.79819147395833356
20
-1.6895249645833335
10
0.8007127083333343
20
-1.6861174781249997
10
0.80329506354166746
20
-1.6827558322916676
10
0.80595381979166736
20
-1.6794553072916665
10
0.80867369687500035
20
-1.6762159031249997
10
0.81146997500000084
20
-1.6730376197916661
10
0.81434265416666729
20
-1.6699204572916673
10
0.81726117395833398
20
-1.666849135416667
10
0.8202560947916675
20
-1.6638542145833335
10
0.82332741666666698
20
-1.6609356947916667
10
0.82644457916666747
20
-1.6580630156250002
10
0.82962286250000095
20
-1.6552667375000005
10
0.83286226666666685
20
-1.6525468604166669
10
0.8361627916666674
20
-1.6498881041666669
10
0.83952443750000094
20
-1.6473057489583331
10
0.84293192395833405
20
-1.6447997947916673
10
0.84640053125000092
20
-1.6423549614583335
10
0.84991497916666736
20
-1.6399865291666669
10
0.85347526770833393
20
-1.6377097781250001
10
0.85709667708333437
20
-1.6354941479166671
10
0.8607486468750013
20
-1.6333701989583338
10
0.86446173750000077
20
-1.6313073708333334
10
0.86820538854166807
20
-1.6293362239583338
10
0.87199488020833427
20
-1.6274567583333335
10
0.87583021250000126
20
-1.6256384135416673
10
0.87969610520833419
20
-1.6239117499999998
10
0.88360783854166725
20
-1.622276767708333
10
0.88753485208333394
20
-1.6207181864583333
10
0.89150770625000086
20
-1.6192512864583335
10
0.89551112083333362
20
-1.6178607875000006
10
0.89954509583333364
20
-1.6165619697916664
10
0.90360963125000027
20
-1.6153395531250005
10
0.90768944687500119
20
-1.6142240979166664
10
0.91179982291666728
20
-1.6131850437499999
10
0.915925479166667
20
-1.612237670833333
10
0.9200664156250018
20
-1.6113666989583328
10
0.92423791250000098
20
-1.6106026885416667
10
0.9284094093750016
20
-1.6099150791666668
10
0.93261146666666739
20
-1.60933443125
10
0.93681352395833384
20
-1.6088301843750006
10
0.94103086145833459
20
-1.6084176187500003
10
0.94524819895833467
20
-1.6080967343749997
10
0.94948081666666773
20
-1.6078675312500001
10
0.95371343437500078
20
-1.6077300093750002
10
0.95796133229166747
20
-1.6076841687500001
10
10.367773387500002
20
-1.6075466468750002
0
CIRCLE
5
101
100
AcDbEntity
8
0
100
AcDbCircle
10
1.1154391593750008
20
-1.9625517270833333
30
0
40
0.10433479052083343
210
0
220
-0
230
1
0
LINE
5
102
100
AcDbEntity
8
0
100
AcDbLine
10
1.1154391593750008
20
-2.0525521541666674
30
0
11
1.1154391593750008
21
-1.8725513
31
0
0
LINE
5
103
100
AcDbEntity
8
0
100
AcDbLine
10
1.0254387322916676
20
-1.9625517270833333
30
0
11
1.2054548666666676
21
-1.9625517270833333
31
0
0
CIRCLE
5
104
100
AcDbEntity
8
0
100
AcDbCircle
10
5.6628750000000005
20
-1.9625517270833333
30
0
40
0.10433479052083255
210
0
220
-0
230
1
0
CIRCLE
5
105
100
AcDbEntity
8
0
100
AcDbCircle
10
10.210295560416668
20
-1.9625517270833333
30
0
40
0.10433479052083255
210
0
220
-0
230
1
0
CIRCLE
5
106
100
AcDbEntity
8
0
100
AcDbCircle
10
9.422860584375
20
-7.1115846499999993
30
0
40
0.10433479052083255
210
0
220
-0
230
1
0
CIRCLE
5
107
100
AcDbEntity
8
0
100
AcDbCircle
10
5.6628750000000005
20
-7.1115846499999993
30
0
40
0.10433479052083255
210
0
220
-0
230
1
0
CIRCLE
5
108
100
AcDbEntity
8
0
100
AcDbCircle
10
1.9028741354166674
20
-7.1115846499999993
30
0
40
0.10433479052083343
210
0
220
-0
230
1
0
ENDSEC
0
SECTION
2
OBJECTS
0
DICTIONARY
5
C
100
AcDbDictionary
3
ACAD_GROUP
350
D
3
ACAD_MLINESTYLE
350
17
0
DICTIONARY
5
D
100
AcDbDictionary
0
DICTIONARY
5
1A
330
C
100
AcDbDictionary
0
DICTIONARY
5
17
100
AcDbDictionary
0
ENDSEC
0
EOF
