<svg height="45" viewBox="0 0 235 45" width="235" xmlns="http://www.w3.org/2000/svg"><g fill="none" fill-rule="evenodd"><g fill="#373a36" transform="translate(54.76087 15.652174)"><path d="m.03519353 12.2384014h2.98130965v-11.43849419h-2.98130965z"/><path d="m10.7989859.79972826h2.7582185l5.0905355 6.93610817v-6.93610817h2.8393425v11.43849414h-2.7379374l-5.1108165-6.93610814v6.93610814h-2.8393426z"/><path d="m28.102154.79972826h3.1232768l2.9001856 8.27465536h.040562l2.9610287-8.27465536h3.1029957l-4.482105 11.43849414h-3.2044008z"/><path d="m46.8452147.79972826h8.8830859v2.35259809h-5.8814952v2.251193h5.2122216v2.10922588h-5.2122216v2.37287911h5.9626193v2.35259806h-8.96421z"/><path d="m63.1336161.79972826h2.7582185l5.0905355 6.93610817v-6.93610817h2.8393425v11.43849414h-2.7379374l-5.1108166-6.93610814v6.93610814h-2.8393425z"/><path d="m84.6348953 3.23333112h-3.9345175v-2.43372216h10.8503446v2.43372216h-3.9345175v9.00536848h-2.9813096z"/><path d="m100.761347 8.18207847h3.082715l-1.521077-4.2792948h-.040562zm-.040562-7.38229056h3.224682l4.461824 11.43849419h-3.123277l-.689555-1.9266967h-4.58351l-.6692735 1.9266967h-3.1232768z"/><path d="m120.5181 10.0481707c1.095175 0 1.703606-.44618236 1.703606-1.31826614 0-.89236479-.608431-1.33854719-1.703606-1.33854719h-2.433722v2.65681333zm-.324496-4.52266699c1.095175 0 1.683325-.42590138 1.683325-1.27770413 0-.81183723-.58815-1.27770414-1.683325-1.27770414h-2.109226v2.55540827zm-5.110816-4.7254772h5.232502c3.062434 0 4.461824 1.27770414 4.461824 3.08211824 0 1.19717656-.709835 1.98813627-1.683324 2.41403765 1.379109.40502386 2.170069 1.37910922 2.170069 2.63653234 0 2.19034996-1.865854 3.30580596-4.684915 3.30580596h-5.496156z"/><path d="m132.4261.79972826h2.98131v8.98508749h6.165429v2.45340665h-9.146739z"/><path d="m148.592935.79972826h8.883086v2.35259809h-5.881496v2.251193h5.212222v2.10922588h-5.212222v2.37287911h5.96262v2.35259806h-8.96421z"/><path d="m165.672415 9.03388123c1.054613.6692736 2.433722 1.09517497 3.590337 1.09517497 1.318266 0 1.9261-.44618239 1.9261-1.09517497 0-2.04838282-6.550769-.77067868-6.550769-4.98913043 0-2.04838283 1.744168-3.52889714 4.766039-3.52889714 1.521077 0 3.102996.36505832 4.401578.99376988l-1.136334 2.12950689c-1.054613-.50702545-2.372879-.7909597-3.326087-.7909597-1.115456 0-1.723886.4461824-1.723886 1.03433192 0 1.98753977 6.530488.58814952 6.530488 5.07025451 0 2.00782074-1.58192 3.52889714-4.847164 3.52889714-1.886134 0-3.691145-.546991-4.98913-1.3385472z"/><path d="m177.78913 10.717325h.319128l.577413.7724682.572044-.7724682h.319724v1.7644486h-.295864v-1.3254242l-.58636.7867842-.606045-.7867842v1.3254242h-.30004zm-1.2783.2672323h-.662712v-.2672323h1.630832v.2672323h-.667484v1.4972163h-.300636z"/></g><path d="m37.2028363 16.5966909-15.8039747-8.97411364v-3.8645193l15.8039747 8.97411364zm0 7.0407537-15.8039747-8.9741137v-3.8628687l15.8039747 8.9741136zm0 7.041854-15.8039747-8.9741137v-3.8639691l15.8039747 8.9741137zm-17.2025566 11.3569771-3.4030293-1.9322596 15.8045342-8.9730133 3.4019105 1.9317094zm-9.6037817-5.4534617 15.8039747-8.9735635 3.4030293 1.9328098-15.8039747 8.9735635zm-6.20019305-3.5201018 15.80285595-8.9741136 3.4030293 1.9322596-15.80397479 8.9735635zm-1.39858184-20.3305406 3.40246989-1.9322596v17.9482273l-3.40246989 1.9322596zm6.19963357-3.52065189 3.40358872-1.93225965v17.94767714l-3.40358872 1.9328098zm6.20075242-3.52065191 3.4035888-1.93280984v17.94767714l-3.4035888 1.9328098zm24.1026 5.0551258-18.6011385-10.56195577c-.4330009-.24538377-.9661403-.24538377-1.3985818 0l-18.60169788 10.56195577c-.43244151.2464841-.69929092.7009393-.69929092 1.1917068v21.1244617c0 .4913177.26684941.9457728.69929092 1.1917068l18.60169788 10.5625059c.4324415.2448336.9655809.2448336 1.3985818 0l18.6011385-10.5625059c.4330009-.245934.6992909-.7003891.6992909-1.1917068v-21.1244617c0-.4907675-.26629-.9452227-.6992909-1.1917068z" fill="#ffa400"/></g></svg>