<?xml version="1.0" encoding="utf-8"?>
<!-- Generator: Adobe Illustrator 17.1.0, SVG Export Plug-In . SVG Version: 6.00 Build 0)  -->
<!DOCTYPE svg PUBLIC "-//W3C//DTD SVG 1.1//EN" "http://www.w3.org/Graphics/SVG/1.1/DTD/svg11.dtd">
<svg version="1.1" id="Layer_1" xmlns="http://www.w3.org/2000/svg" xmlns:xlink="http://www.w3.org/1999/xlink" x="0px" y="0px"
	 viewBox="0 0 148.7 162.7" enable-background="new 0 0 148.7 162.7" xml:space="preserve">
<g>
	<path fill="#666666" d="M130.2,119.7h18.6V23.2h-61L80.4,3.7c-1-2.1-3.3-3.7-5.5-3.7h-1c-2.7,0-4.9,1.6-5.5,3.7l-7.3,19.5H0v96.5
		h18.6v7H22l-11,29.4c-1,2.2,0,4.9,2.7,6c2.7,1,5.9,0.2,6.5-2.4l5.5-14.4h97.7l5.5,14.4c1,2.7,4.3,3.7,6.5,2.6c2.2-1,3.3-4,2.2-6.2
		l-10.9-29.4h3.7v-7H130.2z M74.5,12.6l4,10.7h-7.9L74.5,12.6z M7,30.2h134.8v82.5H7V30.2z M119.7,134.8H29.3l3-8.1h84.5
		L119.7,134.8z"/>
</g>
<circle fill="none" stroke="#666666" stroke-width="4.5946" stroke-miterlimit="10" cx="51.8" cy="61.4" r="11.4"/>
<circle fill="none" stroke="#666666" stroke-width="4.5946" stroke-miterlimit="10" cx="99.8" cy="61.4" r="11.4"/>
<path fill="none" stroke="#666666" stroke-width="4.5946" stroke-miterlimit="10" d="M36.6,85.4c4.7,14,43.9,33.6,75.6,2.8"/>
</svg>
